<svg width="512" height="512" viewBox="0 0 512 512" fill="none" xmlns="http://www.w3.org/2000/svg">
  <defs>
    <linearGradient id="sGradient" x1="120" y1="60" x2="380" y2="450" gradientUnits="userSpaceOnUse">
      <stop offset="0%" stop-color="#E9EB38"></stop>
      <stop offset="20%" stop-color="#B8D43A"></stop>
      <stop offset="40%" stop-color="#E39C35"></stop>
      <stop offset="65%" stop-color="#D85AA5"></stop>
      <stop offset="100%" stop-color="#67C6D9"></stop>
    </linearGradient>
  </defs>

  <path d="
      M360 70
      C280 40 170 60 135 145
      C108 212 145 265 225 300
      C308 337 348 370 348 420
      C348 465 310 495 225 495
      L120 495
      C105 495 95 485 95 470
      L95 425
      C95 415 102 408 112 408
      L215 408
      C260 408 278 395 278 370
      C278 342 255 325 195 300
      C115 268 85 220 95 160
      C108 80 180 20 290 20
      C340 20 385 32 405 48
      C415 56 420 65 420 78
      L420 115
      C420 130 405 140 392 133
      C382 127 372 121 360 116
      C335 105 312 100 288 100
      C235 100 205 120 205 150
      C205 175 225 192 285 220
      C385 265 430 320 430 400
      C430 475 365 520 245 520
    " fill="url(#sGradient)"></path>
</svg>